<svg width="44" height="43" viewBox="0 0 44 43" fill="none" xmlns="http://www.w3.org/2000/svg">
    <path d="M33.0629 0.9999L33.0629 23.6338C32.9715 23.7417 32.8549 23.8791 32.7157 24.0431C32.3424 24.4826 31.8062 25.1124 31.1549 25.8729C29.852 27.3942 28.0896 29.4374 26.2499 31.5265C24.4089 33.6171 22.4961 35.7475 20.8908 37.4457C20.0876 38.2955 19.3683 39.0297 18.7775 39.594C18.1631 40.1808 17.7527 40.5198 17.5484 40.6424C16.5836 41.2212 15.5592 41.2179 14.7495 40.7819C13.9431 40.3478 13.2261 39.4134 13.0567 37.8895C12.8831 36.3269 13.4373 33.8057 14.3014 31.1465C15.1485 28.5399 16.2315 25.9799 16.9666 24.4281L17.6431 23L16.0629 23L3.12068 23C2.48584 22.9229 1.94193 22.7351 1.57745 22.3326C1.22265 21.9408 0.856539 21.1404 1.05619 19.4211C1.44606 16.0638 2.55745 9.07329 3.65889 3.91061C4.02373 2.20051 5.56336 0.999974 7.37031 0.999966L33.0629 0.9999ZM35.0629 23L35.0629 0.999904L42.0629 0.999973L42.0629 23L35.0629 23Z" stroke="white" stroke-width="2"/>
</svg>