<svg width="44" height="43" viewBox="0 0 44 43" fill="none" xmlns="http://www.w3.org/2000/svg">
    <path d="M10 41.0946L10 18.4607C10.0914 18.3528 10.2079 18.2153 10.3472 18.0514C10.7204 17.6119 11.2566 16.9821 11.908 16.2216C13.2108 14.7003 14.9733 12.6571 16.813 10.568C18.6539 8.47742 20.5668 6.34701 22.172 4.64874C22.9752 3.79899 23.6945 3.06473 24.2854 2.50043C24.8998 1.91365 25.3102 1.57471 25.5145 1.45213C26.4792 0.873278 27.5037 0.876551 28.3134 1.31256C29.1198 1.74673 29.8368 2.68108 30.0061 4.20497C30.1797 5.76759 29.6256 8.28878 28.7615 10.948C27.9144 13.5546 26.8313 16.1146 26.0963 17.6664L25.4198 19.0945H27H39.9422C40.577 19.1716 41.1209 19.3594 41.4854 19.7619C41.8402 20.1536 42.2063 20.9541 42.0067 22.6734C41.6168 26.0307 40.5054 33.0212 39.404 38.1839C39.0391 39.894 37.4995 41.0945 35.6926 41.0945L10 41.0946ZM8 19.0945L8 41.0946L1 41.0945L1 19.0945H8Z" stroke="white" stroke-width="2"/>
</svg>
