<svg width="89" height="85" viewBox="0 0 89 85" fill="none" xmlns="http://www.w3.org/2000/svg">
    <path d="M42.3684 72.4444H12.5263C10.265 72.4444 8.0963 71.5431 6.49732 69.9385C4.89829 68.3339 4 66.1578 4 63.8889V25.3889C4 23.1198 4.89829 20.9436 6.49732 19.3392C8.0963 17.7347 10.265 16.8333 12.5263 16.8333H16.7895C19.0508 16.8333 21.2195 15.9319 22.8185 14.3275C24.4175 12.723 25.3158 10.5468 25.3158 8.27778C25.3158 7.14323 25.765 6.05517 26.5644 5.25292C27.3639 4.45066 28.4483 4 29.5789 4H55.1579C56.2885 4 57.373 4.45066 58.1724 5.25292C58.9717 6.05517 59.4211 7.14323 59.4211 8.27778C59.4211 10.5468 60.3193 12.723 61.9184 14.3275C63.5175 15.9319 65.6862 16.8333 67.9474 16.8333H72.2105C74.4717 16.8333 76.6404 17.7347 78.2395 19.3392C79.8386 20.9436 80.7368 23.1198 80.7368 25.3889V40.3611M59.4211 68.1667H85M72.2105 55.3333V81M29.5789 42.5C29.5789 45.9034 30.9264 49.1678 33.3249 51.5744C35.7234 53.9811 38.9764 55.3333 42.3684 55.3333C45.7602 55.3333 49.0134 53.9811 51.4119 51.5744C53.8103 49.1678 55.1579 45.9034 55.1579 42.5C55.1579 39.0964 53.8103 35.8321 51.4119 33.4254C49.0134 31.0187 45.7602 29.6667 42.3684 29.6667C38.9764 29.6667 35.7234 31.0187 33.3249 33.4254C30.9264 35.8321 29.5789 39.0964 29.5789 42.5Z" stroke="white" stroke-width="7" stroke-linecap="round" stroke-linejoin="round"/>
</svg>
