<svg width="89" height="90" viewBox="0 0 89 90" fill="none" xmlns="http://www.w3.org/2000/svg">
<path d="M6.84016 43.7968L9.31775 41.3246H9.31775L6.84016 43.7968ZM45.7115 82.7536L48.1895 80.2818L48.1891 80.2814L45.7115 82.7536ZM48.8582 84.8608L50.2004 81.6284L50.1993 81.6279L48.8582 84.8608ZM52.5701 89.101C54.503 89.101 56.0701 87.534 56.0701 85.601C56.0701 83.668 54.503 82.101 52.5701 82.101V89.101ZM81.922 52.6768C81.922 54.6098 83.489 56.1768 85.422 56.1768C87.355 56.1768 88.922 54.6098 88.922 52.6768H81.922ZM84.6835 48.9568L81.4485 50.2929L81.449 50.294L84.6835 48.9568ZM82.5809 45.8032L80.1034 48.2755L80.104 48.276L82.5809 45.8032ZM43.7047 6.8464L46.1822 4.37409L46.1822 4.37408L43.7047 6.8464ZM36.851 4L36.8523 0.5H36.851V4ZM8.20841 8.21766L10.686 10.6898L10.686 10.6898L8.20841 8.21766ZM70.5 86C70.5 87.933 72.067 89.5 74 89.5C75.933 89.5 77.5 87.933 77.5 86L70.5 86ZM77.5001 63C77.5001 61.067 75.9331 59.5 74.0001 59.5C72.0671 59.5 70.5001 61.067 70.5001 63L77.5001 63ZM85 78.5C86.933 78.5 88.5 76.933 88.5 75C88.5 73.067 86.933 71.5 85 71.5L85 78.5ZM62 71.4999C60.067 71.4999 58.5 73.0669 58.5 74.9999C58.5 76.9329 60.067 78.4999 62 78.4999L62 71.4999ZM25.5526 33.9C30.138 33.9 33.8421 30.1767 33.8421 25.6H26.8421C26.8421 26.3252 26.2575 26.9 25.5526 26.9V33.9ZM33.8421 25.6C33.8421 21.0232 30.138 17.3 25.5526 17.3V24.3C26.2575 24.3 26.8421 24.8748 26.8421 25.6H33.8421ZM25.5526 17.3C20.9673 17.3 17.2632 21.0232 17.2632 25.6H24.2632C24.2632 24.8748 24.8477 24.3 25.5526 24.3V17.3ZM17.2632 25.6C17.2632 30.1767 20.9673 33.9 25.5526 33.9V26.9C24.8477 26.9 24.2632 26.3252 24.2632 25.6H17.2632ZM0.5 18.4V36.9232H7.5V18.4H0.5ZM0.5 36.9232C0.5 40.4255 1.8863 43.7872 4.36257 46.269L9.31775 41.3246C8.15401 40.1584 7.5 38.5761 7.5 36.9232H0.5ZM4.36257 46.269L43.2339 85.2258L48.1891 80.2814L9.31775 41.3246L4.36257 46.269ZM43.2335 85.2254C44.4589 86.4538 45.9144 87.4288 47.5171 88.0937L50.1993 81.6279C49.4485 81.3165 48.7654 80.8592 48.1895 80.2818L43.2335 85.2254ZM47.516 88.0932C49.118 88.7584 50.8352 89.101 52.5701 89.101V82.101C51.7569 82.101 50.952 81.9405 50.2004 81.6284L47.516 88.0932ZM88.922 52.6768C88.922 50.9412 88.5808 49.223 87.918 47.6196L81.449 50.294C81.7612 51.0493 81.922 51.8588 81.922 52.6768H88.922ZM87.9184 47.6207C87.2559 46.0167 86.2839 44.5585 85.0578 43.3304L80.104 48.276C80.6797 48.8527 81.1368 49.5382 81.4485 50.2929L87.9184 47.6207ZM85.0583 43.3309L46.1822 4.37409L41.2273 9.31871L80.1034 48.2755L85.0583 43.3309ZM46.1822 4.37408C43.7088 1.89563 40.3532 0.501308 36.8523 0.5L36.8497 7.5C38.4902 7.50061 40.0649 8.15387 41.2273 9.31872L46.1822 4.37408ZM36.851 0.5H18.3684V7.5H36.851V0.5ZM18.3684 0.5C13.6269 0.5 9.08121 2.38776 5.73082 5.74551L10.686 10.6898C12.7248 8.64652 15.4884 7.5 18.3684 7.5V0.5ZM5.73085 5.74549C2.38068 9.10295 0.5 13.6551 0.5 18.4H7.5C7.5 15.5066 8.64693 12.7333 10.686 10.6898L5.73085 5.74549ZM77.5 86L77.5001 63L70.5001 63L70.5 86L77.5 86ZM85 71.5L62 71.4999L62 78.4999L85 78.5L85 71.5Z" fill="white"/>
</svg>
