<svg width="89" height="87" viewBox="0 0 89 87" fill="none" xmlns="http://www.w3.org/2000/svg">
    <path d="M69.6287 55.6692C70.439 54.8512 71.4626 54.1624 72.5288 53.6888C73.5951 53.2153 74.7893 53 75.9408 53C77.0923 53 78.2865 53.2153 79.3527 53.6888C80.419 54.1624 81.4425 54.8082 82.2529 55.6692C83.0632 56.5302 83.7456 57.5204 84.2148 58.5967C84.6839 59.673 84.8971 60.8785 84.8971 62.0409C84.8971 63.2033 84.6839 64.4087 84.2148 65.485C83.7456 66.5613 83.1059 67.5946 82.2529 68.4125L67.7948 83.1362H55V70.2207L69.5861 55.6262L69.6287 55.6692Z" stroke="white" stroke-width="7" stroke-linecap="round" stroke-linejoin="round"/>
    <path d="M6.84016 43.7968L4.36257 46.269C4.37484 46.2812 4.3872 46.2935 4.39965 46.3056L6.84016 43.7968ZM39.5595 80.5088C40.945 81.8566 43.1609 81.8261 44.5088 80.4405C45.8566 79.055 45.8261 76.8391 44.4405 75.4912L39.5595 80.5088ZM75.049 42.4985C76.4288 43.8521 78.6448 43.8309 79.9985 42.451C81.3521 41.0712 81.3309 38.8552 79.951 37.5015L75.049 42.4985ZM43.7047 6.8464L41.2273 9.31872C41.2361 9.32749 41.2449 9.33621 41.2537 9.34488L43.7047 6.8464ZM36.851 4L36.8523 0.5H36.851V4ZM8.20841 8.21766L10.686 10.6898L10.686 10.6898L8.20841 8.21766ZM25.5526 33.9C30.138 33.9 33.8421 30.1767 33.8421 25.6H26.8421C26.8421 26.3252 26.2575 26.9 25.5526 26.9V33.9ZM33.8421 25.6C33.8421 21.0232 30.138 17.3 25.5526 17.3V24.3C26.2575 24.3 26.8421 24.8748 26.8421 25.6H33.8421ZM25.5526 17.3C20.9673 17.3 17.2632 21.0232 17.2632 25.6H24.2632C24.2632 24.8748 24.8477 24.3 25.5526 24.3V17.3ZM17.2632 25.6C17.2632 30.1767 20.9673 33.9 25.5526 33.9V26.9C24.8477 26.9 24.2632 26.3252 24.2632 25.6H17.2632ZM0.5 18.4V36.9232H7.5V18.4H0.5ZM0.5 36.9232C0.5 40.4255 1.88631 43.7872 4.36257 46.269L9.31775 41.3246C8.15401 40.1583 7.5 38.5761 7.5 36.9232H0.5ZM4.39965 46.3056L39.5595 80.5088L44.4405 75.4912L9.28067 41.288L4.39965 46.3056ZM79.951 37.5015L46.1558 4.34792L41.2537 9.34488L75.049 42.4985L79.951 37.5015ZM46.1822 4.37408C43.7088 1.89564 40.3532 0.501308 36.8523 0.5L36.8497 7.5C38.4902 7.50061 40.0649 8.15387 41.2273 9.31872L46.1822 4.37408ZM36.851 0.5H18.3684V7.5H36.851V0.5ZM18.3684 0.5C13.6269 0.5 9.08121 2.38776 5.73083 5.74551L10.686 10.6898C12.7248 8.64652 15.4884 7.5 18.3684 7.5V0.5ZM5.73085 5.74549C2.38068 9.10295 0.5 13.6551 0.5 18.4H7.5C7.5 15.5066 8.64693 12.7333 10.686 10.6898L5.73085 5.74549Z" fill="white"/>
</svg>
