<svg width="93" height="87" viewBox="0 0 93 87" fill="none" xmlns="http://www.w3.org/2000/svg">
    <path d="M42.3843 72.8828H12.5299C10.2694 72.8828 8.09433 71.9787 6.51631 70.3428C4.89563 68.7068 4 66.5542 4 64.2725V25.5259C4 23.2441 4.89563 21.0485 6.51631 19.4556C8.13698 17.8196 10.2694 16.9155 12.5299 16.9155H16.7948C19.0552 16.9155 21.2303 16.0114 22.8083 14.3755C24.429 12.7395 25.3246 10.5869 25.3246 8.30518C25.3246 7.14278 25.7938 6.06648 26.5615 5.2485C27.3718 4.43052 28.438 4 29.5896 4H55.1791C56.3307 4 57.3969 4.47357 58.2072 5.2485C59.0176 6.06648 59.4441 7.14278 59.4441 8.30518C59.4441 10.5869 60.3397 12.7826 61.9604 14.3755C63.581 16.0114 65.7135 16.9155 67.9739 16.9155H72.2388C74.4992 16.9155 76.6744 17.8196 78.2524 19.4556C79.8731 21.0916 80.7687 23.2441 80.7687 25.5259V35.7292M73.7316 55.533C74.5419 54.715 75.5655 54.0262 76.6317 53.5526C77.6979 53.079 78.8921 52.8638 80.0437 52.8638C81.1952 52.8638 82.3894 53.079 83.4556 53.5526C84.5218 54.0262 85.5454 54.6719 86.3557 55.533C87.1661 56.394 87.8485 57.3842 88.3176 58.4605C88.7868 59.5368 89 60.7422 89 61.9046C89 63.067 88.7868 64.2725 88.3176 65.3488C87.8485 66.4251 87.2087 67.4583 86.3557 68.2763L71.8976 83H59.1029V70.0845L73.6889 55.4899L73.7316 55.533ZM29.5896 42.7466C29.5896 46.1907 30.9543 49.4627 33.3427 51.8736C35.7311 54.2845 39.0151 55.6621 42.3843 55.6621C45.7536 55.6621 49.0376 54.2845 51.426 51.8736C53.8144 49.4627 55.1791 46.1477 55.1791 42.7466C55.1791 39.3455 53.8144 36.0305 51.426 33.6196C49.0376 31.2087 45.7536 29.8311 42.3843 29.8311C39.0151 29.8311 35.7311 31.2087 33.3427 33.6196C30.9543 36.0305 29.5896 39.3455 29.5896 42.7466Z" stroke="white" stroke-width="7" stroke-linecap="round" stroke-linejoin="round"/>
</svg>
