<svg width="24" height="26" viewBox="0 0 24 26" fill="none" xmlns="http://www.w3.org/2000/svg">
    <path d="M7 25H3C1.89543 25 1 24.1046 1 23V10.4821C1 9.86268 1.28699 9.27824 1.77711 8.89951L10.7771 1.94496C11.4974 1.38839 12.5026 1.38839 13.2229 1.94497L22.2229 8.89951C22.713 9.27824 23 9.86268 23 10.4821V23C23 24.1046 22.1046 25 21 25H17C15.8954 25 15 24.1046 15 23V18C15 16.8954 14.1046 16 13 16H11C9.89543 16 9 16.8954 9 18V23C9 24.1046 8.10457 25 7 25Z" stroke="white" stroke-width="2"/>
</svg>
