<svg width="42" height="22" viewBox="0 0 42 22" fill="none" xmlns="http://www.w3.org/2000/svg">
    <path d="M14.3183 7.0129L12.4092 2.42957H1.90918L6.64373 13.0409C6.93834 13.7009 7.42829 14.2633 8.05273 14.6583C8.67719 15.0533 9.4087 15.2635 10.1565 15.2629H14.3183M27.6819 7.0129L29.591 2.42957H40.091L35.3565 13.0409C35.0619 13.7009 34.5718 14.2633 33.9474 14.6583C33.3229 15.0533 32.5915 15.2635 31.8437 15.2629H27.6819M13.3637 11.5962C13.3637 13.5411 14.1683 15.4064 15.6004 16.7817C17.0325 18.1569 18.9748 18.9296 21.0001 18.9296C23.0254 18.9296 24.9678 18.1569 26.3998 16.7817C27.832 15.4064 28.6365 13.5411 28.6365 11.5962C28.6365 9.6513 27.832 7.78603 26.3998 6.41078C24.9678 5.0355 23.0254 4.2629 21.0001 4.2629C18.9748 4.2629 17.0325 5.0355 15.6004 6.41078C14.1683 7.78603 13.3637 9.6513 13.3637 11.5962Z" stroke="white" stroke-width="2" stroke-linecap="round" stroke-linejoin="round"/>
</svg>
