<svg width="40" height="40" viewBox="0 0 40 40" fill="none" xmlns="http://www.w3.org/2000/svg">
    <path d="M16.65 4.63401C17.502 1.122 22.498 1.122 23.35 4.63401C23.4778 5.16159 23.7284 5.65155 24.0814 6.06399C24.4344 6.47645 24.8798 6.79971 25.3814 7.00749C25.8828 7.21527 26.4264 7.30171 26.9676 7.25973C27.5088 7.21777 28.0324 7.04861 28.496 6.76601C31.582 4.88601 35.116 8.41801 33.236 11.506C32.9538 11.9693 32.7848 12.4927 32.743 13.0335C32.7012 13.5744 32.7876 14.1175 32.995 14.6187C33.2026 15.12 33.5254 15.5651 33.9374 15.9181C34.3494 16.271 34.8388 16.5218 35.366 16.65C38.878 17.502 38.878 22.498 35.366 23.35C34.8384 23.4778 34.3484 23.7284 33.936 24.0814C33.5236 24.4344 33.2002 24.8798 32.9926 25.3812C32.7848 25.8828 32.6982 26.4264 32.7402 26.9676C32.7822 27.5088 32.9514 28.0324 33.234 28.496C35.114 31.582 31.582 35.116 28.494 33.236C28.0306 32.9538 27.5074 32.7848 26.9664 32.743C26.4256 32.7012 25.8824 32.7876 25.3812 32.995C24.88 33.2026 24.4348 33.5254 24.0818 33.9374C23.729 34.3494 23.4782 34.8388 23.35 35.366C22.498 38.878 17.502 38.878 16.65 35.366C16.5222 34.8384 16.2716 34.3484 15.9186 33.936C15.5656 33.5236 15.1202 33.2002 14.6187 32.9924C14.1172 32.7848 13.5737 32.6982 13.0324 32.7402C12.4912 32.7822 11.9675 32.9514 11.504 33.234C8.418 35.114 4.884 31.582 6.764 28.494C7.0462 28.0306 7.2151 27.5074 7.25696 26.9664C7.29884 26.4256 7.21248 25.8824 7.00494 25.3812C6.7974 24.88 6.47452 24.4348 6.06254 24.0818C5.65058 23.729 5.16112 23.4782 4.634 23.35C1.122 22.498 1.122 17.502 4.634 16.65C5.1616 16.5222 5.65156 16.2715 6.064 15.9186C6.47644 15.5656 6.7997 15.1202 7.0075 14.6187C7.21528 14.1172 7.3017 13.5737 7.25974 13.0324C7.21778 12.4912 7.0486 11.9675 6.766 11.504C4.886 8.41801 8.418 4.88401 11.506 6.76401C13.506 7.98001 16.098 6.90401 16.65 4.63401Z" stroke="white" stroke-width="3" stroke-linecap="round" stroke-linejoin="round"/>
    <path d="M14 20C14 21.5912 14.6321 23.1174 15.7574 24.2426C16.8826 25.3678 18.4087 26 20 26C21.5912 26 23.1174 25.3678 24.2426 24.2426C25.3678 23.1174 26 21.5912 26 20C26 18.4087 25.3678 16.8826 24.2426 15.7573C23.1174 14.6321 21.5912 14 20 14C18.4087 14 16.8826 14.6321 15.7574 15.7573C14.6321 16.8826 14 18.4087 14 20Z" stroke="white" stroke-width="3" stroke-linecap="round" stroke-linejoin="round"/>
</svg>