<svg width="27" height="27" viewBox="0 0 27 27" fill="none" xmlns="http://www.w3.org/2000/svg">
    <path d="M1.3501 13.767H2.7001M13.5001 1.76697V3.1003M24.3001 13.767H25.6501M4.8601 5.23363L5.8051 6.16697M22.1401 5.23363L21.1951 6.16697M10.3951 20.4336H16.6051M9.4501 19.1003C8.31673 18.2607 7.47954 17.0903 7.05713 15.7547C6.63471 14.4192 6.64848 12.9862 7.09648 11.6588C7.54449 10.3314 8.40401 9.17682 9.5533 8.35867C10.7026 7.54054 12.0834 7.1003 13.5001 7.1003C14.9168 7.1003 16.2976 7.54054 17.447 8.35867C18.5962 9.17682 19.4558 10.3314 19.9037 11.6588C20.3518 12.9862 20.3655 14.4192 19.9431 15.7547C19.5207 17.0903 18.6834 18.2607 17.5501 19.1003C17.0231 19.6156 16.6262 20.2462 16.3917 20.9411C16.157 21.636 16.0914 22.3756 16.2001 23.1003C16.2001 23.8075 15.9157 24.4858 15.4093 24.9859C14.9029 25.486 14.2161 25.767 13.5001 25.767C12.784 25.767 12.0973 25.486 11.5909 24.9859C11.0846 24.4858 10.8001 23.8075 10.8001 23.1003C10.9087 22.3756 10.8431 21.636 10.6086 20.9411C10.374 20.2462 9.97718 19.6156 9.4501 19.1003Z" stroke="white" stroke-width="2" stroke-linecap="round" stroke-linejoin="round"/>
</svg>
